<svg width="210" height="210" viewBox="0 0 210 210" fill="none" xmlns="http://www.w3.org/2000/svg">
  <defs>
    <linearGradient id="bgGrad" x1="0" y1="0" x2="0" y2="1">
      <stop offset="0%" stop-color="#ffffff"/>
      <stop offset="100%" stop-color="#e8e8ec"/>
    </linearGradient>
    <linearGradient id="borderGrad" x1="0" y1="0" x2="0" y2="1">
      <stop offset="0%" stop-color="#ffffff" stop-opacity="0.9"/>
      <stop offset="100%" stop-color="#c0c0c8"/>
    </linearGradient>
    <linearGradient id="logoGrad" x1="0.2" y1="0" x2="0.8" y2="1">
      <stop offset="0%" stop-color="#ff7040"/>
      <stop offset="100%" stop-color="#e83800"/>
    </linearGradient>
    <linearGradient id="shineGrad" x1="0" y1="0" x2="0" y2="1">
      <stop offset="0%" stop-color="#ffffff" stop-opacity="0.55"/>
      <stop offset="55%" stop-color="#ffffff" stop-opacity="0"/>
    </linearGradient>
    <clipPath id="iconClip">
      <rect x="7" y="7" width="196" height="196" rx="44" ry="44"/>
    </clipPath>
  </defs>
  <!-- Border stroke, fully visible with 7px padding -->
  <rect x="6" y="6" width="198" height="198" rx="46" ry="46" fill="none" stroke="url(#borderGrad)" stroke-width="1.5"/>
  <!-- Main background -->
  <rect x="7" y="7" width="196" height="196" rx="44" ry="44" fill="url(#bgGrad)"/>
  <!-- Logo scaled to 156x156 (scale=3.9), centered: offset 20,20 within bg → 27,27 -->
  <g transform="translate(27, 27) scale(3.9)">
    <path fill-rule="evenodd" clip-rule="evenodd"
      d="M20 0C27.4768 0 31.2154 -0.000204921 34 1.60742C35.8242 2.66064 37.3394 4.17577 38.3926 6C40.0002 8.7846 40 12.5232 40 20C40 27.4768 40.0002 31.2154 38.3926 34C37.3394 35.8242 35.8242 37.3394 34 38.3926C31.2154 40.0002 27.4768 40 20 40C12.5232 40 8.7846 40.0002 6 38.3926C4.17577 37.3394 2.66064 35.8242 1.60742 34C-0.000204921 31.2154 0 27.4768 0 20C0 12.5232 -0.000204921 8.7846 1.60742 6C2.66064 4.17577 4.17577 2.66064 6 1.60742C8.7846 -0.000204921 12.5232 0 20 0ZM22 4C13.1634 4 6 11.1634 6 20C6 28.8366 13.1634 36 22 36C30.8366 36 38 28.8366 38 20C38 11.1634 30.8366 4 22 4Z"
      fill="url(#logoGrad)"/>
    <path
      d="M36 20C36 25.5228 31.5228 30 26 30C20.4772 30 16 25.5228 16 20C16 14.4772 20.4772 10 26 10C31.5228 10 36 14.4772 36 20Z"
      fill="url(#logoGrad)"/>
  </g>
  <!-- Glass shine -->
  <rect x="7" y="7" width="196" height="102" rx="44" ry="44" fill="url(#shineGrad)" clip-path="url(#iconClip)"/>
</svg>
